<svg width="117" height="101" viewBox="0 0 117 101" fill="none" xmlns="http://www.w3.org/2000/svg">
<circle cx="77.5" cy="52.5" r="9" fill="white" stroke="#4132CF" stroke-width="3"/>
<mask id="path-2-inside-1_49_205" fill="white">
<path fill-rule="evenodd" clip-rule="evenodd" d="M69.4103 62.6736C63.2619 65.5367 59 71.7706 59 79V88C59 90.7614 61.2386 93 64 93H90C92.7614 93 95 90.7614 95 88V79C95 72.032 91.0407 65.9888 85.2491 62.9973C83.205 64.8625 80.4853 66 77.5 66C74.3457 66 71.488 64.7301 69.4103 62.6736Z"/>
</mask>
<path fill-rule="evenodd" clip-rule="evenodd" d="M69.4103 62.6736C63.2619 65.5367 59 71.7706 59 79V88C59 90.7614 61.2386 93 64 93H90C92.7614 93 95 90.7614 95 88V79C95 72.032 91.0407 65.9888 85.2491 62.9973C83.205 64.8625 80.4853 66 77.5 66C74.3457 66 71.488 64.7301 69.4103 62.6736Z" fill="#887EF1"/>
<path d="M69.4103 62.6736L71.5207 60.5414L70.0367 59.0726L68.1439 59.954L69.4103 62.6736ZM85.2491 62.9973L86.6259 60.3318L84.77 59.3732L83.227 60.7812L85.2491 62.9973ZM62 79C62 72.9801 65.5462 67.7822 70.6767 65.3932L68.1439 59.954C60.9776 63.2911 56 70.5612 56 79H62ZM62 88V79H56V88H62ZM64 90C62.8954 90 62 89.1046 62 88H56C56 92.4183 59.5817 96 64 96V90ZM90 90H64V96H90V90ZM92 88C92 89.1046 91.1046 90 90 90V96C94.4183 96 98 92.4183 98 88H92ZM92 79V88H98V79H92ZM83.8724 65.6627C88.7062 68.1595 92 73.1976 92 79H98C98 70.8664 93.3753 63.8181 86.6259 60.3318L83.8724 65.6627ZM83.227 60.7812C81.7139 62.1619 79.7083 63 77.5 63V69C81.2624 69 84.6961 67.5631 87.2712 65.2133L83.227 60.7812ZM77.5 63C75.1676 63 73.0596 62.0646 71.5207 60.5414L67.2999 64.8057C69.9164 67.3956 73.5238 69 77.5 69V63Z" fill="#4132CF" mask="url(#path-2-inside-1_49_205)"/>
<circle cx="47.5" cy="60.5" r="9" fill="white" stroke="#4132CF" stroke-width="3"/>
<mask id="path-5-inside-2_49_205" fill="white">
<path fill-rule="evenodd" clip-rule="evenodd" d="M39.4103 70.6736C33.2619 73.5367 29 79.7706 29 87V96C29 98.7614 31.2386 101 34 101H60C62.7614 101 65 98.7614 65 96V87C65 80.032 61.0407 73.9888 55.2491 70.9973C53.205 72.8625 50.4853 74 47.5 74C44.3457 74 41.488 72.7301 39.4103 70.6736Z"/>
</mask>
<path fill-rule="evenodd" clip-rule="evenodd" d="M39.4103 70.6736C33.2619 73.5367 29 79.7706 29 87V96C29 98.7614 31.2386 101 34 101H60C62.7614 101 65 98.7614 65 96V87C65 80.032 61.0407 73.9888 55.2491 70.9973C53.205 72.8625 50.4853 74 47.5 74C44.3457 74 41.488 72.7301 39.4103 70.6736Z" fill="#FFC451"/>
<path d="M39.4103 70.6736L41.5207 68.5414L40.0367 67.0726L38.1439 67.954L39.4103 70.6736ZM55.2491 70.9973L56.6259 68.3318L54.77 67.3732L53.227 68.7812L55.2491 70.9973ZM32 87C32 80.9801 35.5462 75.7822 40.6767 73.3932L38.1439 67.954C30.9776 71.2911 26 78.5612 26 87H32ZM32 96V87H26V96H32ZM34 98C32.8954 98 32 97.1046 32 96H26C26 100.418 29.5817 104 34 104V98ZM60 98H34V104H60V98ZM62 96C62 97.1046 61.1046 98 60 98V104C64.4183 104 68 100.418 68 96H62ZM62 87V96H68V87H62ZM53.8724 73.6627C58.7062 76.1595 62 81.1976 62 87H68C68 78.8664 63.3753 71.8181 56.6259 68.3318L53.8724 73.6627ZM53.227 68.7812C51.7139 70.1619 49.7083 71 47.5 71V77C51.2624 77 54.6961 75.5631 57.2712 73.2133L53.227 68.7812ZM47.5 71C45.1676 71 43.0596 70.0646 41.5207 68.5414L37.2999 72.8057C39.9164 75.3956 43.5238 77 47.5 77V71Z" fill="#4132CF" mask="url(#path-5-inside-2_49_205)"/>
<path d="M2 35.5785C42.4825 32.7654 62.4681 25.6446 94 4.57849" stroke="#4132CF" stroke-width="3" stroke-linecap="round"/>
<path d="M21.4584 49.2765L10.8981 35.5477C10.6634 35.2426 10.847 34.7979 11.2285 34.7472L28.3982 32.4661C28.7797 32.4154 29.0731 32.7968 28.9262 33.1525L22.3168 49.1624C22.17 49.5182 21.693 49.5816 21.4584 49.2765Z" fill="white" stroke="#4132CF" stroke-width="3"/>
<path d="M55.4148 42.1418L42.6165 30.4712C42.3321 30.2119 42.4351 29.7419 42.8019 29.6253L59.3081 24.3769C59.6749 24.2603 60.0304 24.5845 59.948 24.9605L56.2401 41.8794C56.1577 42.2554 55.6992 42.4012 55.4148 42.1418Z" fill="#FFC453" stroke="#4132CF" stroke-width="3"/>
<path d="M87.3808 28.2183L72.3641 19.5871C72.0304 19.3953 72.0295 18.9141 72.3624 18.721L87.3457 10.0318C87.6786 9.83869 88.0957 10.0784 88.0965 10.4633L88.13 27.7838C88.1308 28.1687 87.7146 28.4101 87.3808 28.2183Z" fill="white" stroke="#4132CF" stroke-width="3"/>
<path d="M10.125 77.9375C10.125 79.8022 8.235 81.3125 5.90625 81.3125C3.5775 81.3125 1.6875 79.8022 1.6875 77.9375C1.6875 76.0745 3.5775 74.5625 5.90625 74.5625C8.235 74.5625 10.125 76.0745 10.125 77.9375ZM25.3125 74.5625C25.3125 76.4272 23.4225 77.9375 21.0938 77.9375C18.765 77.9375 16.875 76.4272 16.875 74.5625C16.875 72.6978 18.765 71.1875 21.0938 71.1875C23.4225 71.1875 25.3125 72.6978 25.3125 74.5625Z" fill="#4132CF"/>
<path fill-rule="evenodd" clip-rule="evenodd" d="M23.625 74.5625V59.375H25.3125V74.5625H23.625ZM10.125 61.0625V77.9375H8.4375V61.0625H10.125Z" fill="#4132CF"/>
<path d="M8.4375 60.9021C8.43749 60.4838 8.59288 60.0804 8.87351 59.7701C9.15414 59.4599 9.54001 59.2649 9.95625 59.2231L23.4562 57.8731C23.6909 57.8495 23.9279 57.8754 24.1519 57.949C24.376 58.0227 24.5821 58.1424 24.757 58.3006C24.9319 58.4589 25.0717 58.652 25.1674 58.8675C25.2631 59.0831 25.3125 59.3163 25.3125 59.5521V61.0625L8.4375 62.75V60.9021Z" fill="#4132CF"/>
<path d="M103.875 47.375C103.875 49.4469 101.775 51.125 99.1875 51.125C96.6 51.125 94.5 49.4469 94.5 47.375C94.5 45.3031 96.6 43.625 99.1875 43.625C101.775 43.625 103.875 45.3031 103.875 47.375Z" fill="#4132CF"/>
<path fill-rule="evenodd" clip-rule="evenodd" d="M103.875 28.625V47.375H102V28.625H103.875Z" fill="#4132CF"/>
<path d="M102 28.2874C102 27.8541 102.151 27.4343 102.425 27.0993C102.7 26.7643 103.083 26.5349 103.507 26.4499L109.132 25.3249C109.404 25.2706 109.685 25.2772 109.954 25.3444C110.223 25.4115 110.474 25.5375 110.688 25.7133C110.903 25.889 111.076 26.1102 111.194 26.3607C111.313 26.6113 111.375 26.8851 111.375 27.1624V30.4999L102 32.3749V28.2874Z" fill="#4132CF"/>
</svg>
