<svg width="63" height="63" viewBox="0 0 63 63" fill="none" xmlns="http://www.w3.org/2000/svg">
<path fill-rule="evenodd" clip-rule="evenodd" d="M9.84375 47.25C9.84375 46.7279 10.0512 46.2271 10.4204 45.8579C10.7896 45.4887 11.2904 45.2812 11.8125 45.2812H51.1875C51.7096 45.2812 52.2104 45.4887 52.5796 45.8579C52.9488 46.2271 53.1562 46.7279 53.1562 47.25C53.1562 47.7721 52.9488 48.2729 52.5796 48.6421C52.2104 49.0113 51.7096 49.2188 51.1875 49.2188H11.8125C11.2904 49.2188 10.7896 49.0113 10.4204 48.6421C10.0512 48.2729 9.84375 47.7721 9.84375 47.25ZM20 31.5C20 30.9779 20.2074 30.4771 20.5766 30.1079C20.9458 29.7387 21.4466 29.5312 21.9688 29.5312H51.1875C51.7096 29.5312 52.2104 29.7387 52.5796 30.1079C52.9488 30.4771 53.1562 30.9779 53.1562 31.5C53.1562 32.0221 52.9488 32.5229 52.5796 32.8921C52.2104 33.2613 51.7096 33.4688 51.1875 33.4688H21.9688C21.4466 33.4688 20.9458 33.2613 20.5766 32.8921C20.2074 32.5229 20 32.0221 20 31.5ZM9.84375 15.75C9.84375 15.2279 10.0512 14.7271 10.4204 14.3579C10.7896 13.9887 11.2904 13.7812 11.8125 13.7812H51.1875C51.7096 13.7812 52.2104 13.9887 52.5796 14.3579C52.9488 14.7271 53.1562 15.2279 53.1562 15.75C53.1562 16.2721 52.9488 16.7729 52.5796 17.1421C52.2104 17.5113 51.7096 17.7188 51.1875 17.7188H11.8125C11.2904 17.7188 10.7896 17.5113 10.4204 17.1421C10.0512 16.7729 9.84375 16.2721 9.84375 15.75Z" fill="white" stroke="white"/>
</svg>
