<svg width="238" height="47" viewBox="0 0 238 47" fill="none" xmlns="http://www.w3.org/2000/svg">
<path d="M230.83 31.1127C230.83 31.8691 231.063 32.4073 231.528 32.7273C232.023 33.0473 232.707 33.2073 233.579 33.2073C234.016 33.2073 234.467 33.1782 234.932 33.12C235.398 33.0327 235.805 32.9309 236.154 32.8146C236.416 33.1346 236.634 33.4982 236.808 33.9055C237.012 34.2837 237.114 34.7491 237.114 35.3018C237.114 36.4073 236.692 37.3091 235.848 38.0073C235.034 38.7055 233.579 39.0546 231.485 39.0546C228.925 39.0546 226.947 38.4727 225.55 37.3091C224.183 36.1455 223.499 34.2546 223.499 31.6364V12.96C223.819 12.8727 224.27 12.7855 224.852 12.6982C225.463 12.5818 226.103 12.5237 226.772 12.5237C228.052 12.5237 229.041 12.7564 229.739 13.2218C230.467 13.6582 230.83 14.6037 230.83 16.0582V18.8509H236.547C236.721 19.1709 236.881 19.5782 237.027 20.0727C237.201 20.5382 237.288 21.0618 237.288 21.6437C237.288 22.6618 237.056 23.4037 236.59 23.8691C236.154 24.3055 235.558 24.5237 234.801 24.5237H230.83V31.1127Z" fill="white"/>
<path d="M211.412 24.96C211.412 24.0582 211.15 23.4036 210.626 22.9964C210.132 22.56 209.448 22.3418 208.575 22.3418C207.994 22.3418 207.412 22.4146 206.83 22.56C206.277 22.7055 205.797 22.9236 205.39 23.2146V38.3564C205.099 38.4437 204.634 38.5309 203.994 38.6182C203.383 38.7055 202.743 38.7491 202.074 38.7491C201.434 38.7491 200.852 38.7055 200.328 38.6182C199.834 38.5309 199.412 38.3564 199.063 38.0946C198.714 37.8327 198.437 37.4837 198.234 37.0473C198.059 36.5818 197.972 35.9855 197.972 35.2582V22.1673C197.972 21.3818 198.132 20.7418 198.452 20.2473C198.801 19.7527 199.266 19.3018 199.848 18.8946C200.837 18.1964 202.074 17.6291 203.557 17.1927C205.07 16.7564 206.743 16.5382 208.575 16.5382C211.863 16.5382 214.394 17.2655 216.168 18.72C217.943 20.1455 218.83 22.1382 218.83 24.6982V38.3564C218.539 38.4437 218.074 38.5309 217.434 38.6182C216.823 38.7055 216.183 38.7491 215.514 38.7491C214.874 38.7491 214.292 38.7055 213.768 38.6182C213.274 38.5309 212.852 38.3564 212.503 38.0946C212.154 37.8327 211.877 37.4837 211.674 37.0473C211.499 36.5818 211.412 35.9855 211.412 35.2582V24.96Z" fill="white"/>
<path d="M185.482 11.3018C185.482 10.1964 185.846 9.26548 186.573 8.50912C187.329 7.75275 188.318 7.37457 189.54 7.37457C190.762 7.37457 191.736 7.75275 192.464 8.50912C193.22 9.26548 193.598 10.1964 193.598 11.3018C193.598 12.4073 193.22 13.3382 192.464 14.0946C191.736 14.8509 190.762 15.2291 189.54 15.2291C188.318 15.2291 187.329 14.8509 186.573 14.0946C185.846 13.3382 185.482 12.4073 185.482 11.3018ZM193.249 38.3564C192.929 38.4146 192.449 38.4873 191.809 38.5746C191.198 38.6909 190.573 38.7491 189.933 38.7491C189.293 38.7491 188.711 38.7055 188.187 38.6182C187.693 38.5309 187.271 38.3564 186.922 38.0946C186.573 37.8328 186.296 37.4837 186.093 37.0473C185.918 36.5818 185.831 35.9855 185.831 35.2582V17.4982C186.151 17.44 186.616 17.3673 187.227 17.28C187.867 17.1637 188.507 17.1055 189.147 17.1055C189.787 17.1055 190.355 17.1491 190.849 17.2364C191.373 17.3237 191.809 17.4982 192.158 17.76C192.507 18.0218 192.769 18.3855 192.944 18.8509C193.147 19.2873 193.249 19.8691 193.249 20.5964V38.3564Z" fill="white"/>
<path d="M182.037 27.7964C182.037 29.6 181.761 31.2146 181.208 32.64C180.656 34.0364 179.87 35.2146 178.852 36.1746C177.863 37.1346 176.67 37.8618 175.274 38.3564C173.877 38.8509 172.321 39.0982 170.605 39.0982C168.888 39.0982 167.332 38.8364 165.936 38.3127C164.539 37.7891 163.332 37.0473 162.314 36.0873C161.325 35.0982 160.554 33.9055 160.001 32.5091C159.448 31.1127 159.172 29.5418 159.172 27.7964C159.172 26.08 159.448 24.5237 160.001 23.1273C160.554 21.7309 161.325 20.5527 162.314 19.5927C163.332 18.6036 164.539 17.8473 165.936 17.3237C167.332 16.8 168.888 16.5382 170.605 16.5382C172.321 16.5382 173.877 16.8146 175.274 17.3673C176.67 17.8909 177.863 18.6473 178.852 19.6364C179.87 20.5964 180.656 21.7746 181.208 23.1709C181.761 24.5673 182.037 26.1091 182.037 27.7964ZM166.765 27.7964C166.765 29.5709 167.099 30.9382 167.768 31.8982C168.466 32.8291 169.426 33.2946 170.648 33.2946C171.87 33.2946 172.801 32.8146 173.441 31.8546C174.11 30.8946 174.445 29.5418 174.445 27.7964C174.445 26.0509 174.11 24.7127 173.441 23.7818C172.772 22.8218 171.826 22.3418 170.605 22.3418C169.383 22.3418 168.437 22.8218 167.768 23.7818C167.099 24.7127 166.765 26.0509 166.765 27.7964Z" fill="white"/>
<path d="M145.845 24.2182C147.067 24.2182 147.998 23.9418 148.638 23.3891C149.307 22.8073 149.641 21.9345 149.641 20.7709C149.641 19.6654 149.292 18.8218 148.594 18.24C147.925 17.6291 146.936 17.3236 145.627 17.3236C145.161 17.3236 144.769 17.3382 144.449 17.3673C144.158 17.3673 143.852 17.3964 143.532 17.4545V24.2182H145.845ZM143.576 38.2254C143.256 38.3127 142.747 38.4 142.049 38.4873C141.38 38.5745 140.711 38.6182 140.041 38.6182C139.372 38.6182 138.776 38.56 138.252 38.4436C137.758 38.3564 137.336 38.1818 136.987 37.92C136.638 37.6582 136.376 37.2945 136.201 36.8291C136.027 36.3636 135.94 35.7527 135.94 34.9964V14.4436C135.94 13.8327 136.1 13.3673 136.42 13.0473C136.769 12.6982 137.234 12.4218 137.816 12.2182C138.805 11.8691 139.925 11.6218 141.176 11.4764C142.456 11.3018 143.736 11.2145 145.016 11.2145C149.031 11.2145 152.1 12.0727 154.223 13.7891C156.347 15.5054 157.409 17.8327 157.409 20.7709C157.409 22.1964 157.176 23.4909 156.711 24.6545C156.274 25.7891 155.605 26.7782 154.703 27.6218C153.831 28.4364 152.711 29.0764 151.343 29.5418C150.005 29.9782 148.449 30.1964 146.674 30.1964H143.576V38.2254Z" fill="white"/>
<path d="M110.842 16.5382C112.587 16.5382 114.202 16.7709 115.686 17.2364C117.198 17.6727 118.493 18.3564 119.569 19.2873C120.646 20.2182 121.489 21.3964 122.1 22.8218C122.711 24.2182 123.016 25.8909 123.016 27.84C123.016 29.7018 122.755 31.3309 122.231 32.7273C121.707 34.1237 120.966 35.3018 120.006 36.2618C119.046 37.1927 117.882 37.8909 116.515 38.3564C115.176 38.8218 113.678 39.0546 112.02 39.0546C110.769 39.0546 109.606 38.8655 108.529 38.4873V45.7309C108.238 45.8182 107.773 45.9055 107.133 45.9927C106.493 46.1091 105.838 46.1673 105.169 46.1673C104.529 46.1673 103.947 46.1236 103.424 46.0364C102.929 45.9491 102.507 45.7746 102.158 45.5127C101.809 45.2509 101.547 44.8873 101.373 44.4218C101.198 43.9855 101.111 43.4037 101.111 42.6764V21.7309C101.111 20.9455 101.271 20.3055 101.591 19.8109C101.94 19.3164 102.406 18.8655 102.987 18.4582C103.889 17.8764 105.009 17.4109 106.347 17.0618C107.686 16.7127 109.184 16.5382 110.842 16.5382ZM110.929 33.2073C113.926 33.2073 115.424 31.4182 115.424 27.84C115.424 25.9782 115.046 24.5964 114.289 23.6946C113.562 22.7927 112.5 22.3418 111.104 22.3418C110.551 22.3418 110.056 22.4146 109.62 22.56C109.184 22.6764 108.806 22.8218 108.486 22.9964V32.5964C108.835 32.7709 109.213 32.9164 109.62 33.0327C110.027 33.1491 110.464 33.2073 110.929 33.2073Z" fill="white"/>
<path d="M88.6212 11.3018C88.6212 10.1964 88.9848 9.26548 89.7121 8.50912C90.4684 7.75275 91.4575 7.37457 92.6793 7.37457C93.9012 7.37457 94.8757 7.75275 95.603 8.50912C96.3593 9.26548 96.7375 10.1964 96.7375 11.3018C96.7375 12.4073 96.3593 13.3382 95.603 14.0946C94.8757 14.8509 93.9012 15.2291 92.6793 15.2291C91.4575 15.2291 90.4684 14.8509 89.7121 14.0946C88.9848 13.3382 88.6212 12.4073 88.6212 11.3018ZM96.3884 38.3564C96.0684 38.4146 95.5884 38.4873 94.9484 38.5746C94.3375 38.6909 93.7121 38.7491 93.0721 38.7491C92.4321 38.7491 91.8502 38.7055 91.3266 38.6182C90.8321 38.5309 90.4102 38.3564 90.0612 38.0946C89.7121 37.8328 89.4357 37.4837 89.2321 37.0473C89.0575 36.5818 88.9702 35.9855 88.9702 35.2582V17.4982C89.2902 17.44 89.7557 17.3673 90.3666 17.28C91.0066 17.1637 91.6466 17.1055 92.2866 17.1055C92.9266 17.1055 93.4939 17.1491 93.9884 17.2364C94.5121 17.3237 94.9484 17.4982 95.2975 17.76C95.6466 18.0218 95.9084 18.3855 96.083 18.8509C96.2866 19.2873 96.3884 19.8691 96.3884 20.5964V38.3564Z" fill="white"/>
<path d="M78.2735 38.3564C77.9826 38.4437 77.5172 38.5309 76.8772 38.6182C76.2663 38.7055 75.6263 38.7491 74.9572 38.7491C74.3172 38.7491 73.7353 38.7055 73.2117 38.6182C72.7172 38.5309 72.2953 38.3564 71.9463 38.0946C71.5972 37.8328 71.3208 37.4837 71.1172 37.0473C70.9426 36.5818 70.8553 35.9855 70.8553 35.2582V22.1673C70.8553 21.4982 70.9717 20.9309 71.2044 20.4655C71.4663 19.9709 71.8299 19.5346 72.2953 19.1564C72.7608 18.7782 73.3281 18.4437 73.9972 18.1528C74.6953 17.8328 75.4372 17.5564 76.2226 17.3237C77.0081 17.0909 77.8226 16.9164 78.6663 16.8C79.5099 16.6546 80.3535 16.5818 81.1972 16.5818C82.5935 16.5818 83.699 16.8582 84.5135 17.4109C85.3281 17.9346 85.7353 18.8073 85.7353 20.0291C85.7353 20.4364 85.6772 20.8437 85.5608 21.2509C85.4444 21.6291 85.299 21.9782 85.1244 22.2982C84.5135 22.2982 83.8881 22.3273 83.2481 22.3855C82.6081 22.4437 81.9826 22.5309 81.3717 22.6473C80.7608 22.7637 80.179 22.8946 79.6263 23.04C79.1026 23.1564 78.6517 23.3018 78.2735 23.4764V38.3564Z" fill="white"/>
<path d="M47.7008 18.0655C47.4972 17.7455 47.3081 17.3091 47.1335 16.7564C46.959 16.2037 46.8717 15.6218 46.8717 15.0109C46.8717 13.8764 47.119 13.0618 47.6135 12.5673C48.1372 12.0727 48.8062 11.8255 49.6208 11.8255H68.6462C68.8499 12.1455 69.039 12.5818 69.2135 13.1346C69.3881 13.6873 69.4753 14.2691 69.4753 14.88C69.4753 16.0146 69.2135 16.8291 68.6899 17.3237C68.1953 17.8182 67.5408 18.0655 66.7262 18.0655H61.8826V38.2255C61.5626 38.3127 61.0535 38.4 60.3553 38.4873C59.6862 38.5746 59.0172 38.6182 58.3481 38.6182C57.679 38.6182 57.0826 38.56 56.559 38.4437C56.0644 38.3564 55.6426 38.1818 55.2935 37.92C54.9444 37.6582 54.6826 37.2946 54.5081 36.8291C54.3335 36.3637 54.2462 35.7527 54.2462 34.9964V18.0655H47.7008Z" fill="white"/>
<path d="M27.8178 17.5549C26.7889 19.6403 25.3947 21.7178 23.9691 23.5833C22.6167 25.3419 21.1707 27.0266 19.6373 28.6298C18.1039 27.0266 16.6578 25.342 15.3055 23.5833C13.8799 21.7178 12.4857 19.6403 11.4568 17.5549C10.4161 15.4479 9.81911 13.4745 9.81911 11.7818C9.81911 9.17787 10.8535 6.68058 12.6948 4.83931C14.5361 2.99805 17.0333 1.96364 19.6373 1.96364C22.2412 1.96364 24.7385 2.99805 26.5798 4.83931C28.4211 6.68058 29.4555 9.17787 29.4555 11.7818C29.4555 13.4745 28.8566 15.4479 27.8178 17.5549ZM19.6373 31.4182C19.6373 31.4182 31.4191 20.2529 31.4191 11.7818C31.4191 8.65709 30.1778 5.66033 27.9683 3.45081C25.7588 1.2413 22.762 0 19.6373 0C16.5126 0 13.5158 1.2413 11.3063 3.45081C9.09676 5.66033 7.85547 8.65709 7.85547 11.7818C7.85547 20.2529 19.6373 31.4182 19.6373 31.4182Z" fill="white"/>
<circle cx="19.6373" cy="10.9091" r="5.67273" fill="white"/>
<path fill-rule="evenodd" clip-rule="evenodd" d="M27.5472 26.9137L35.4396 30L19.6373 36.1794L3.83491 30L11.9165 26.8398L10.6518 25.295L0.65137 29.2062C0.455319 29.283 0.291398 29.3974 0.177107 29.5373C0.0628169 29.6771 0.00244889 29.837 0.00244889 30C0.00244889 30.163 0.0628169 30.323 0.177107 30.4628C0.291398 30.6026 0.455319 30.717 0.65137 30.7938L7.826 33.6L0.648915 36.4062C0.452865 36.483 0.288943 36.5974 0.174653 36.7373C0.0603624 36.8771 -5.65959e-06 37.037 -5.65959e-06 37.2C-5.65959e-06 37.363 0.0603624 37.523 0.174653 37.6628C0.288943 37.8026 0.452865 37.917 0.648915 37.9938L19.058 45.1938C19.2356 45.2631 19.4337 45.2994 19.6348 45.2994C19.836 45.2994 20.0341 45.2631 20.2116 45.1938L38.6207 37.9938C38.8168 37.917 38.9807 37.8026 39.095 37.6628C39.2093 37.523 39.2696 37.363 39.2696 37.2C39.2696 37.037 39.2093 36.8771 39.095 36.7373C38.9807 36.5974 38.8168 36.483 38.6207 36.4062L31.451 33.6L38.6232 30.7938C38.8192 30.717 38.9832 30.6026 39.0974 30.4628C39.2117 30.323 39.2721 30.163 39.2721 30C39.2721 29.837 39.2117 29.6771 39.0974 29.5373C38.9832 29.3974 38.8192 29.283 38.6232 29.2062L28.8392 25.3796L27.5472 26.9137Z" fill="white"/>
</svg>
