<svg width="56" height="56" viewBox="0 0 56 56" fill="none" xmlns="http://www.w3.org/2000/svg">
<g clip-path="url(#clip0_45_78)">
<path fill-rule="evenodd" clip-rule="evenodd" d="M55.3595 0.395369C55.5599 0.559644 55.7213 0.766365 55.832 1.00061C55.9428 1.23485 56.0002 1.49076 56 1.74987V50.7499C55.9998 51.1543 55.8595 51.5461 55.6029 51.8588C55.3464 52.1714 54.9896 52.3856 54.593 52.4649L37.093 55.9649C36.8666 56.0099 36.6334 56.0099 36.407 55.9649L19.25 52.5349L2.093 55.9649C1.83921 56.0156 1.57733 56.0094 1.32622 55.9467C1.07512 55.8841 0.841036 55.7665 0.640848 55.6024C0.440659 55.4384 0.279347 55.232 0.168531 54.9981C0.0577156 54.7642 0.000156285 54.5087 0 54.2499L0 5.24987C0.000244237 4.84546 0.140546 4.45361 0.397052 4.14096C0.653557 3.8283 1.01043 3.61413 1.407 3.53487L18.907 0.0348691C19.1334 -0.0103884 19.3666 -0.0103884 19.593 0.0348691L36.75 3.46487L53.907 0.0348691C54.1607 -0.0161755 54.4226 -0.0103182 54.6737 0.0520191C54.9249 0.114356 55.1591 0.231622 55.3595 0.395369V0.395369ZM35 6.68487L21 3.88487V49.3149L35 52.1149V6.68487ZM38.5 52.1149L52.5 49.3149V3.88487L38.5 6.68487V52.1149ZM17.5 49.3149V3.88487L3.5 6.68487V52.1149L17.5 49.3149Z" fill="white"/>
</g>
<defs>
<clipPath id="clip0_45_78">
<rect width="56" height="56" fill="white"/>
</clipPath>
</defs>
</svg>
