<svg width="114" height="114" viewBox="0 0 114 114" fill="none" xmlns="http://www.w3.org/2000/svg">
<path fill-rule="evenodd" clip-rule="evenodd" d="M43.7903 50.9153C44.1212 50.5835 44.5143 50.3203 44.9471 50.1407C45.3799 49.9611 45.8439 49.8687 46.3125 49.8687C46.7811 49.8687 47.2451 49.9611 47.6779 50.1407C48.1107 50.3203 48.5038 50.5835 48.8348 50.9153L57 59.0876L65.1653 50.9153C65.8342 50.2463 66.7415 49.8705 67.6875 49.8705C68.6335 49.8705 69.5408 50.2463 70.2098 50.9153C70.8787 51.5842 71.2545 52.4915 71.2545 53.4375C71.2545 54.3835 70.8787 55.2908 70.2098 55.9598L62.0374 64.125L70.2098 72.2903C70.8787 72.9592 71.2545 73.8665 71.2545 74.8125C71.2545 75.7585 70.8787 76.6658 70.2098 77.3348C69.5408 78.0037 68.6335 78.3795 67.6875 78.3795C66.7415 78.3795 65.8342 78.0037 65.1653 77.3348L57 69.1624L48.8348 77.3348C48.1658 78.0037 47.2585 78.3795 46.3125 78.3795C45.3665 78.3795 44.4592 78.0037 43.7903 77.3348C43.1213 76.6658 42.7455 75.7585 42.7455 74.8125C42.7455 73.8665 43.1213 72.9592 43.7903 72.2903L51.9626 64.125L43.7903 55.9598C43.4585 55.6288 43.1953 55.2357 43.0157 54.8029C42.8361 54.3701 42.7437 53.9061 42.7437 53.4375C42.7437 52.9689 42.8361 52.5049 43.0157 52.0721C43.1953 51.6393 43.4585 51.2462 43.7903 50.9153Z" fill="#CBCCDB"/>
<path d="M28.5 10.6875H21.375C17.5957 10.6875 13.9711 12.1888 11.2987 14.8612C8.62634 17.5336 7.125 21.1582 7.125 24.9375V99.75C7.125 103.529 8.62634 107.154 11.2987 109.826C13.9711 112.499 17.5957 114 21.375 114H92.625C96.4043 114 100.029 112.499 102.701 109.826C105.374 107.154 106.875 103.529 106.875 99.75V24.9375C106.875 21.1582 105.374 17.5336 102.701 14.8612C100.029 12.1888 96.4043 10.6875 92.625 10.6875H85.5V17.8125H92.625C94.5147 17.8125 96.3269 18.5632 97.6631 19.8994C98.9993 21.2356 99.75 23.0478 99.75 24.9375V99.75C99.75 101.64 98.9993 103.452 97.6631 104.788C96.3269 106.124 94.5147 106.875 92.625 106.875H21.375C19.4853 106.875 17.6731 106.124 16.3369 104.788C15.0007 103.452 14.25 101.64 14.25 99.75V24.9375C14.25 23.0478 15.0007 21.2356 16.3369 19.8994C17.6731 18.5632 19.4853 17.8125 21.375 17.8125H28.5V10.6875Z" fill="#CBCCDB"/>
<path d="M67.6875 7.125C68.6323 7.125 69.5385 7.50033 70.2066 8.16843C70.8747 8.83653 71.25 9.74267 71.25 10.6875V17.8125C71.25 18.7573 70.8747 19.6635 70.2066 20.3316C69.5385 20.9997 68.6323 21.375 67.6875 21.375H46.3125C45.3677 21.375 44.4615 20.9997 43.7934 20.3316C43.1253 19.6635 42.75 18.7573 42.75 17.8125V10.6875C42.75 9.74267 43.1253 8.83653 43.7934 8.16843C44.4615 7.50033 45.3677 7.125 46.3125 7.125H67.6875ZM46.3125 0C43.478 0 40.7596 1.126 38.7553 3.1303C36.751 5.13459 35.625 7.853 35.625 10.6875V17.8125C35.625 20.647 36.751 23.3654 38.7553 25.3697C40.7596 27.374 43.478 28.5 46.3125 28.5H67.6875C70.522 28.5 73.2404 27.374 75.2447 25.3697C77.249 23.3654 78.375 20.647 78.375 17.8125V10.6875C78.375 7.853 77.249 5.13459 75.2447 3.1303C73.2404 1.126 70.522 0 67.6875 0L46.3125 0Z" fill="#CBCCDB"/>
</svg>
