<svg width="53" height="62" viewBox="0 0 53 62" fill="none" xmlns="http://www.w3.org/2000/svg">
<path d="M4.5 40.5L25.5 49.5L26 50L48.5 40L26 31L4.5 40.5Z" fill="white"/>
<path d="M25.4181 29.2003L25.4176 29.2005L2.44848 38.1839L2.44791 38.1842C2.07024 38.3321 1.71482 38.5675 1.44676 38.8954C1.17491 39.2279 1.00306 39.6464 1.00306 40.1057C1.00306 40.5649 1.17491 40.9834 1.44676 41.316C1.71482 41.6439 2.07024 41.8792 2.44791 42.0272L2.44847 42.0274L9.01883 44.5972L2.44551 47.1674L2.44485 47.1676C2.06717 47.3156 1.71175 47.5509 1.4437 47.8788C1.17185 48.2114 1 48.6299 1 49.0891C1 49.5484 1.17185 49.9669 1.4437 50.2994C1.71175 50.6273 2.06717 50.8627 2.44485 51.0106L2.44542 51.0109L25.4145 59.9943L25.415 59.9945C25.7588 60.1288 26.13 60.1948 26.4985 60.1948C26.867 60.1948 27.2381 60.1288 27.5819 59.9945L27.5824 59.9943L50.5515 51.0109L50.5521 51.0106C50.9298 50.8627 51.2852 50.6273 51.5532 50.2994C51.8251 49.9669 51.9969 49.5484 51.9969 49.0891C51.9969 48.6299 51.8251 48.2114 51.5532 47.8788C51.2852 47.5509 50.9298 47.3156 50.5521 47.1676L50.5518 47.1675L43.9857 44.5976L50.5547 42.0273L50.5552 42.0272C50.9328 41.8792 51.2882 41.6439 51.5563 41.316C51.8282 40.9834 52 40.5649 52 40.1057C52 39.6464 51.8282 39.2279 51.5563 38.8954C51.2882 38.5675 50.9328 38.3321 50.5552 38.1842L50.5546 38.1839L27.5855 29.2005L27.2212 30.1318L27.585 29.2003C27.2412 29.066 26.87 29 26.5015 29C26.1331 29 25.7619 29.066 25.4181 29.2003ZM26.5015 46.742L9.53068 40.1057L26.5015 33.4693L43.4724 40.1057L26.5015 46.742Z" fill="#4052D6" stroke="white" stroke-width="2"/>
<path d="M26.7002 41.2006L26.0124 41.9265L26.7002 42.5783L27.3881 41.9265L26.7002 41.2006ZM26.7002 41.2006C27.3881 41.9265 27.3883 41.9263 27.3885 41.9261L27.3893 41.9253L27.3918 41.9229L27.4009 41.9143L27.4347 41.882C27.464 41.8539 27.5068 41.8126 27.5622 41.7588C27.673 41.6511 27.8342 41.4931 28.0386 41.2888C28.4475 40.8804 29.0294 40.287 29.7269 39.5424C31.1209 38.0544 32.9815 35.957 34.8446 33.5216C36.7054 31.0892 38.5837 28.3003 40.0003 25.43C41.4115 22.5706 42.4005 19.5591 42.4005 16.7002C42.4005 12.5363 40.7463 8.54286 37.802 5.59849C34.8576 2.65413 30.8642 1 26.7002 1C22.5363 1 18.5429 2.65413 15.5985 5.59849C12.6541 8.54286 11 12.5363 11 16.7002C11 19.5591 11.989 22.5706 13.4002 25.43C14.8168 28.3003 16.695 31.0892 18.5559 33.5216C20.419 35.957 22.2796 38.0544 23.6735 39.5424C24.371 40.287 24.953 40.8804 25.3618 41.2888C25.5663 41.4931 25.7275 41.6511 25.8383 41.7588C25.8937 41.8126 25.9365 41.8539 25.9658 41.882L25.9995 41.9143L26.0086 41.9229L26.0112 41.9253L26.0119 41.9261C26.0122 41.9263 26.0124 41.9265 26.7002 41.2006ZM17.3902 23.4609L17.39 23.4605C16.1248 20.8992 15.45 18.5959 15.45 16.7002C15.45 13.7165 16.6353 10.855 18.7451 8.74514C20.855 6.63532 23.7165 5.45004 26.7002 5.45004C29.684 5.45004 32.5455 6.63532 34.6553 8.74514C36.7651 10.855 37.9504 13.7165 37.9504 16.7002C37.9504 18.5955 37.2735 20.8988 36.0102 23.4612C34.7652 25.9842 33.067 28.5192 31.3113 30.8167C29.8601 32.7038 28.3214 34.5216 26.7002 36.2643C25.079 34.5216 23.5403 32.7038 22.0892 30.8167C20.3334 28.5191 18.6351 25.984 17.3902 23.4609Z" fill="#4052D6" stroke="white" stroke-width="2"/>
<path d="M13 18.5963L19.2385 31.0734L26.5 39.5L30.5 35L33.5871 31.0734L34.8348 27.9541L38.578 22.3394L39.8257 14.8532L37.9541 9.23852L34.8348 5.49541L30.4679 3.62385L24.8532 3L20.4862 3.62385L16.7431 6.74311L13.6239 12.3578L13 18.5963Z" fill="#4052D6"/>
<circle cx="26.7002" cy="15.6111" r="7.07789" fill="white"/>
</svg>
