<svg width="39" height="39" viewBox="0 0 39 39" fill="none" xmlns="http://www.w3.org/2000/svg">
<g clip-path="url(#clip0_3_662)">
<path d="M18.6639 15.2271C18.9321 14.4227 20.0679 14.4227 20.3361 15.2271L21.9082 19.9485C22.2543 20.9864 22.8374 21.9294 23.6112 22.7028C24.385 23.4762 25.3284 24.0588 26.3664 24.4043L31.0854 25.9765C31.8898 26.2446 31.8898 27.3805 31.0854 27.6486L26.364 29.2208C25.3261 29.5668 24.3831 30.1499 23.6097 30.9237C22.8363 31.6975 22.2537 32.6409 21.9082 33.679L20.3361 38.398C20.2783 38.5741 20.1663 38.7275 20.0162 38.8362C19.866 38.945 19.6854 39.0035 19.5 39.0035C19.3146 39.0035 19.134 38.945 18.9838 38.8362C18.8337 38.7275 18.7217 38.5741 18.6639 38.398L17.0917 33.6765C16.7459 32.6389 16.1633 31.696 15.3899 30.9226C14.6165 30.1493 13.6736 29.5666 12.636 29.2208L7.91456 27.6486C7.73842 27.5908 7.58504 27.4788 7.4763 27.3287C7.36756 27.1785 7.30901 26.9979 7.30901 26.8125C7.30901 26.6271 7.36756 26.4465 7.4763 26.2964C7.58504 26.1462 7.73842 26.0343 7.91456 25.9765L12.636 24.4043C13.6736 24.0585 14.6165 23.4758 15.3899 22.7024C16.1633 21.929 16.7459 20.9861 17.0917 19.9485L18.6639 15.2271ZM9.24787 2.79826C9.28282 2.69271 9.35015 2.60085 9.4403 2.53574C9.53044 2.47064 9.6388 2.43559 9.75 2.43559C9.86119 2.43559 9.96956 2.47064 10.0597 2.53574C10.1498 2.60085 10.2172 2.69271 10.2521 2.79826L11.1954 5.63064C11.6171 6.89326 12.6067 7.88289 13.8694 8.30458L16.7017 9.24789C16.8073 9.28284 16.8992 9.35017 16.9643 9.44031C17.0294 9.53045 17.0644 9.63882 17.0644 9.75001C17.0644 9.86121 17.0294 9.96957 16.9643 10.0597C16.8992 10.1499 16.8073 10.2172 16.7017 10.2521L13.8694 11.1955C13.2467 11.4029 12.6808 11.7526 12.2167 12.2167C11.7526 12.6808 11.4029 13.2467 11.1954 13.8694L10.2521 16.7018C10.2172 16.8073 10.1498 16.8992 10.0597 16.9643C9.96956 17.0294 9.86119 17.0644 9.75 17.0644C9.6388 17.0644 9.53044 17.0294 9.4403 16.9643C9.35015 16.8992 9.28282 16.8073 9.24787 16.7018L8.30456 13.8694C8.09709 13.2467 7.74743 12.6808 7.28331 12.2167C6.81918 11.7526 6.25334 11.4029 5.63062 11.1955L2.79825 10.2521C2.69269 10.2172 2.60083 10.1499 2.53573 10.0597C2.47062 9.96957 2.43558 9.86121 2.43558 9.75001C2.43558 9.63882 2.47062 9.53045 2.53573 9.44031C2.60083 9.35017 2.69269 9.28284 2.79825 9.24789L5.63062 8.30458C6.25334 8.0971 6.81918 7.74745 7.28331 7.28333C7.74743 6.8192 8.09709 6.25336 8.30456 5.63064L9.24787 2.79826ZM26.4786 0.241325C26.5026 0.17192 26.5477 0.111737 26.6076 0.0691437C26.6674 0.02655 26.739 0.00366211 26.8125 0.00366211C26.886 0.00366211 26.9576 0.02655 27.0174 0.0691437C27.0773 0.111737 27.1224 0.17192 27.1464 0.241325L27.7753 2.12795C28.0556 2.97133 28.7162 3.63189 29.5596 3.9122L31.4462 4.54108C31.5156 4.56514 31.5758 4.61023 31.6184 4.67007C31.661 4.72992 31.6838 4.80156 31.6838 4.87501C31.6838 4.94847 31.661 5.0201 31.6184 5.07995C31.5758 5.1398 31.5156 5.18489 31.4462 5.20895L29.5596 5.83783C29.1439 5.97609 28.7663 6.20934 28.4565 6.51906C28.1468 6.82879 27.9136 7.20645 27.7753 7.62208L27.1464 9.5087C27.1224 9.57811 27.0773 9.63829 27.0174 9.68088C26.9576 9.72348 26.886 9.74636 26.8125 9.74636C26.739 9.74636 26.6674 9.72348 26.6076 9.68088C26.5477 9.63829 26.5026 9.57811 26.4786 9.5087L25.8497 7.62208C25.7114 7.20645 25.4782 6.82879 25.1684 6.51906C24.8587 6.20934 24.4811 5.97609 24.0654 5.83783L22.1812 5.20895C22.1118 5.18489 22.0517 5.1398 22.0091 5.07995C21.9665 5.0201 21.9436 4.94847 21.9436 4.87501C21.9436 4.80156 21.9665 4.72992 22.0091 4.67007C22.0517 4.61023 22.1118 4.56514 22.1812 4.54108L24.0679 3.9122C24.9112 3.63189 25.5718 2.97133 25.8521 2.12795L26.4786 0.243762V0.241325Z" fill="#FFA800"/>
</g>
<defs>
<clipPath id="clip0_3_662">
<rect width="39" height="39" fill="white"/>
</clipPath>
</defs>
</svg>
