<svg width="37" height="37" viewBox="0 0 37 37" fill="none" xmlns="http://www.w3.org/2000/svg">
<path fill-rule="evenodd" clip-rule="evenodd" d="M4.625 5.78125C4.31834 5.78125 4.02425 5.90307 3.80741 6.11991C3.59057 6.33675 3.46875 6.63084 3.46875 6.9375V9.25C3.46875 9.55666 3.59057 9.85075 3.80741 10.0676C4.02425 10.2844 4.31834 10.4062 4.625 10.4062H6.9375C7.24416 10.4062 7.53825 10.2844 7.75509 10.0676C7.97193 9.85075 8.09375 9.55666 8.09375 9.25V6.9375C8.09375 6.63084 7.97193 6.33675 7.75509 6.11991C7.53825 5.90307 7.24416 5.78125 6.9375 5.78125H4.625ZM6.9375 6.9375H4.625V9.25H6.9375V6.9375Z" fill="white"/>
<path d="M11.5625 8.09375C11.5625 7.78709 11.6843 7.493 11.9012 7.27616C12.118 7.05932 12.4121 6.9375 12.7188 6.9375H33.5312C33.8379 6.9375 34.132 7.05932 34.3488 7.27616C34.5657 7.493 34.6875 7.78709 34.6875 8.09375C34.6875 8.40041 34.5657 8.6945 34.3488 8.91134C34.132 9.12818 33.8379 9.25 33.5312 9.25H12.7188C12.4121 9.25 12.118 9.12818 11.9012 8.91134C11.6843 8.6945 11.5625 8.40041 11.5625 8.09375ZM12.7188 16.1875C12.4121 16.1875 12.118 16.3093 11.9012 16.5262C11.6843 16.743 11.5625 17.0371 11.5625 17.3438C11.5625 17.6504 11.6843 17.9445 11.9012 18.1613C12.118 18.3782 12.4121 18.5 12.7188 18.5H33.5312C33.8379 18.5 34.132 18.3782 34.3488 18.1613C34.5657 17.9445 34.6875 17.6504 34.6875 17.3438C34.6875 17.0371 34.5657 16.743 34.3488 16.5262C34.132 16.3093 33.8379 16.1875 33.5312 16.1875H12.7188ZM12.7188 25.4375C12.4121 25.4375 12.118 25.5593 11.9012 25.7762C11.6843 25.993 11.5625 26.2871 11.5625 26.5938C11.5625 26.9004 11.6843 27.1945 11.9012 27.4113C12.118 27.6282 12.4121 27.75 12.7188 27.75H33.5312C33.8379 27.75 34.132 27.6282 34.3488 27.4113C34.5657 27.1945 34.6875 26.9004 34.6875 26.5938C34.6875 26.2871 34.5657 25.993 34.3488 25.7762C34.132 25.5593 33.8379 25.4375 33.5312 25.4375H12.7188Z" fill="white"/>
<path fill-rule="evenodd" clip-rule="evenodd" d="M3.46875 16.1875C3.46875 15.8808 3.59057 15.5867 3.80741 15.3699C4.02425 15.1531 4.31834 15.0312 4.625 15.0312H6.9375C7.24416 15.0312 7.53825 15.1531 7.75509 15.3699C7.97193 15.5867 8.09375 15.8808 8.09375 16.1875V18.5C8.09375 18.8067 7.97193 19.1008 7.75509 19.3176C7.53825 19.5344 7.24416 19.6562 6.9375 19.6562H4.625C4.31834 19.6562 4.02425 19.5344 3.80741 19.3176C3.59057 19.1008 3.46875 18.8067 3.46875 18.5V16.1875ZM4.625 16.1875H6.9375V18.5H4.625V16.1875ZM4.625 24.2812C4.31834 24.2812 4.02425 24.4031 3.80741 24.6199C3.59057 24.8367 3.46875 25.1308 3.46875 25.4375V27.75C3.46875 28.0567 3.59057 28.3508 3.80741 28.5676C4.02425 28.7844 4.31834 28.9062 4.625 28.9062H6.9375C7.24416 28.9062 7.53825 28.7844 7.75509 28.5676C7.97193 28.3508 8.09375 28.0567 8.09375 27.75V25.4375C8.09375 25.1308 7.97193 24.8367 7.75509 24.6199C7.53825 24.4031 7.24416 24.2812 6.9375 24.2812H4.625ZM6.9375 25.4375H4.625V27.75H6.9375V25.4375Z" fill="white"/>
</svg>
