<svg width="34" height="34" viewBox="0 0 34 34" fill="none" xmlns="http://www.w3.org/2000/svg">
<path d="M2.125 5.3125C2.125 4.46712 2.46083 3.65637 3.0586 3.0586C3.65637 2.46083 4.46712 2.125 5.3125 2.125H11.6875C12.5329 2.125 13.3436 2.46083 13.9414 3.0586C14.5392 3.65637 14.875 4.46712 14.875 5.3125V11.6875C14.875 12.5329 14.5392 13.3436 13.9414 13.9414C13.3436 14.5392 12.5329 14.875 11.6875 14.875H5.3125C4.46712 14.875 3.65637 14.5392 3.0586 13.9414C2.46083 13.3436 2.125 12.5329 2.125 11.6875V5.3125ZM5.3125 4.25C5.03071 4.25 4.76046 4.36194 4.5612 4.5612C4.36194 4.76046 4.25 5.03071 4.25 5.3125V11.6875C4.25 11.9693 4.36194 12.2395 4.5612 12.4388C4.76046 12.6381 5.03071 12.75 5.3125 12.75H11.6875C11.9693 12.75 12.2395 12.6381 12.4388 12.4388C12.6381 12.2395 12.75 11.9693 12.75 11.6875V5.3125C12.75 5.03071 12.6381 4.76046 12.4388 4.5612C12.2395 4.36194 11.9693 4.25 11.6875 4.25H5.3125ZM19.125 5.3125C19.125 4.46712 19.4608 3.65637 20.0586 3.0586C20.6564 2.46083 21.4671 2.125 22.3125 2.125H28.6875C29.5329 2.125 30.3436 2.46083 30.9414 3.0586C31.5392 3.65637 31.875 4.46712 31.875 5.3125V11.6875C31.875 12.5329 31.5392 13.3436 30.9414 13.9414C30.3436 14.5392 29.5329 14.875 28.6875 14.875H22.3125C21.4671 14.875 20.6564 14.5392 20.0586 13.9414C19.4608 13.3436 19.125 12.5329 19.125 11.6875V5.3125ZM22.3125 4.25C22.0307 4.25 21.7605 4.36194 21.5612 4.5612C21.3619 4.76046 21.25 5.03071 21.25 5.3125V11.6875C21.25 11.9693 21.3619 12.2395 21.5612 12.4388C21.7605 12.6381 22.0307 12.75 22.3125 12.75H28.6875C28.9693 12.75 29.2395 12.6381 29.4388 12.4388C29.6381 12.2395 29.75 11.9693 29.75 11.6875V5.3125C29.75 5.03071 29.6381 4.76046 29.4388 4.5612C29.2395 4.36194 28.9693 4.25 28.6875 4.25H22.3125ZM2.125 22.3125C2.125 21.4671 2.46083 20.6564 3.0586 20.0586C3.65637 19.4608 4.46712 19.125 5.3125 19.125H11.6875C12.5329 19.125 13.3436 19.4608 13.9414 20.0586C14.5392 20.6564 14.875 21.4671 14.875 22.3125V28.6875C14.875 29.5329 14.5392 30.3436 13.9414 30.9414C13.3436 31.5392 12.5329 31.875 11.6875 31.875H5.3125C4.46712 31.875 3.65637 31.5392 3.0586 30.9414C2.46083 30.3436 2.125 29.5329 2.125 28.6875V22.3125ZM5.3125 21.25C5.03071 21.25 4.76046 21.3619 4.5612 21.5612C4.36194 21.7605 4.25 22.0307 4.25 22.3125V28.6875C4.25 28.9693 4.36194 29.2395 4.5612 29.4388C4.76046 29.6381 5.03071 29.75 5.3125 29.75H11.6875C11.9693 29.75 12.2395 29.6381 12.4388 29.4388C12.6381 29.2395 12.75 28.9693 12.75 28.6875V22.3125C12.75 22.0307 12.6381 21.7605 12.4388 21.5612C12.2395 21.3619 11.9693 21.25 11.6875 21.25H5.3125ZM19.125 22.3125C19.125 21.4671 19.4608 20.6564 20.0586 20.0586C20.6564 19.4608 21.4671 19.125 22.3125 19.125H28.6875C29.5329 19.125 30.3436 19.4608 30.9414 20.0586C31.5392 20.6564 31.875 21.4671 31.875 22.3125V28.6875C31.875 29.5329 31.5392 30.3436 30.9414 30.9414C30.3436 31.5392 29.5329 31.875 28.6875 31.875H22.3125C21.4671 31.875 20.6564 31.5392 20.0586 30.9414C19.4608 30.3436 19.125 29.5329 19.125 28.6875V22.3125ZM22.3125 21.25C22.0307 21.25 21.7605 21.3619 21.5612 21.5612C21.3619 21.7605 21.25 22.0307 21.25 22.3125V28.6875C21.25 28.9693 21.3619 29.2395 21.5612 29.4388C21.7605 29.6381 22.0307 29.75 22.3125 29.75H28.6875C28.9693 29.75 29.2395 29.6381 29.4388 29.4388C29.6381 29.2395 29.75 28.9693 29.75 28.6875V22.3125C29.75 22.0307 29.6381 21.7605 29.4388 21.5612C29.2395 21.3619 28.9693 21.25 28.6875 21.25H22.3125Z" fill="white"/>
</svg>
