<svg width="34" height="34" viewBox="0 0 34 34" fill="none" xmlns="http://www.w3.org/2000/svg">
<g clip-path="url(#clip0_7_201)">
<path d="M12.7543 11.6875C12.7543 12.5329 12.4184 13.3436 11.8207 13.9414C11.2229 14.5392 10.4121 14.875 9.56677 14.875C8.72139 14.875 7.91064 14.5392 7.31287 13.9414C6.7151 13.3436 6.37927 12.5329 6.37927 11.6875C6.37927 10.8421 6.7151 10.0314 7.31287 9.4336C7.91064 8.83582 8.72139 8.5 9.56677 8.5C10.4121 8.5 11.2229 8.83582 11.8207 9.4336C12.4184 10.0314 12.7543 10.8421 12.7543 11.6875Z" fill="white"/>
<path d="M3.1875 4.25C2.34212 4.25 1.53137 4.58583 0.933597 5.1836C0.335825 5.78137 0 6.59212 0 7.4375L0 26.5625C0 27.4079 0.335825 28.2186 0.933597 28.8164C1.53137 29.4142 2.34212 29.75 3.1875 29.75H30.8125C31.6579 29.75 32.4686 29.4142 33.0664 28.8164C33.6642 28.2186 34 27.4079 34 26.5625V7.4375C34 6.59212 33.6642 5.78137 33.0664 5.1836C32.4686 4.58583 31.6579 4.25 30.8125 4.25H3.1875ZM30.8125 6.375C31.0943 6.375 31.3645 6.48694 31.5638 6.6862C31.7631 6.88546 31.875 7.15571 31.875 7.4375V20.1875L23.8531 16.0501C23.6538 15.9503 23.4282 15.9157 23.2082 15.9511C22.9881 15.9866 22.7848 16.0904 22.627 16.2477L14.7433 24.1315L9.09075 20.366C8.88666 20.2301 8.64187 20.169 8.39787 20.193C8.15387 20.217 7.92568 20.3247 7.752 20.4977L2.12925 25.5V26.6475C2.12671 26.6192 2.12529 26.5909 2.125 26.5625V7.4375C2.125 7.15571 2.23694 6.88546 2.4362 6.6862C2.63546 6.48694 2.90571 6.375 3.1875 6.375H30.8125Z" fill="white"/>
</g>
<defs>
<clipPath id="clip0_7_201">
<rect width="34" height="34" fill="white"/>
</clipPath>
</defs>
</svg>
